<mxfile host="app.diagrams.net" modified="2023-03-07T18:57:41.863Z" agent="5.0 (Windows NT 10.0; Win64; x64) AppleWebKit/537.36 (KHTML, like Gecko) Chrome/110.0.0.0 Safari/537.36" etag="KFF1bOE3mOcGmsVv232g" version="21.0.2" type="github">
  <diagram name="Page-1" id="ZR6DnShHIE4RE90jMRah">
    <mxGraphModel dx="1050" dy="549" grid="1" gridSize="10" guides="1" tooltips="1" connect="1" arrows="1" fold="1" page="1" pageScale="1" pageWidth="850" pageHeight="1100" math="0" shadow="0">
      <root>
        <mxCell id="0" />
        <mxCell id="1" parent="0" />
        <mxCell id="FAIi7eiu8izLVMuamcSI-1" value="Paitient" style="rounded=0;whiteSpace=wrap;html=1;" vertex="1" parent="1">
          <mxGeometry x="220" y="180" width="120" height="60" as="geometry" />
        </mxCell>
        <mxCell id="FAIi7eiu8izLVMuamcSI-6" style="rounded=0;orthogonalLoop=1;jettySize=auto;html=1;endArrow=none;endFill=0;" edge="1" parent="1" source="FAIi7eiu8izLVMuamcSI-2" target="FAIi7eiu8izLVMuamcSI-1">
          <mxGeometry relative="1" as="geometry" />
        </mxCell>
        <mxCell id="FAIi7eiu8izLVMuamcSI-2" value="&lt;u&gt;SSN&lt;/u&gt;" style="ellipse;whiteSpace=wrap;html=1;" vertex="1" parent="1">
          <mxGeometry x="140" y="90" width="60" height="30" as="geometry" />
        </mxCell>
        <mxCell id="FAIi7eiu8izLVMuamcSI-7" style="rounded=0;orthogonalLoop=1;jettySize=auto;html=1;endArrow=none;endFill=0;" edge="1" parent="1" source="FAIi7eiu8izLVMuamcSI-3" target="FAIi7eiu8izLVMuamcSI-1">
          <mxGeometry relative="1" as="geometry" />
        </mxCell>
        <mxCell id="FAIi7eiu8izLVMuamcSI-3" value="name" style="ellipse;whiteSpace=wrap;html=1;" vertex="1" parent="1">
          <mxGeometry x="50" y="170" width="60" height="30" as="geometry" />
        </mxCell>
        <mxCell id="FAIi7eiu8izLVMuamcSI-9" style="rounded=0;orthogonalLoop=1;jettySize=auto;html=1;entryX=0.25;entryY=1;entryDx=0;entryDy=0;endArrow=none;endFill=0;" edge="1" parent="1" source="FAIi7eiu8izLVMuamcSI-4" target="FAIi7eiu8izLVMuamcSI-1">
          <mxGeometry relative="1" as="geometry" />
        </mxCell>
        <mxCell id="FAIi7eiu8izLVMuamcSI-4" value="age" style="ellipse;whiteSpace=wrap;html=1;" vertex="1" parent="1">
          <mxGeometry x="180" y="300" width="60" height="30" as="geometry" />
        </mxCell>
        <mxCell id="FAIi7eiu8izLVMuamcSI-8" style="rounded=0;orthogonalLoop=1;jettySize=auto;html=1;entryX=0;entryY=0.75;entryDx=0;entryDy=0;endArrow=none;endFill=0;" edge="1" parent="1" source="FAIi7eiu8izLVMuamcSI-5" target="FAIi7eiu8izLVMuamcSI-1">
          <mxGeometry relative="1" as="geometry" />
        </mxCell>
        <mxCell id="FAIi7eiu8izLVMuamcSI-5" value="address" style="ellipse;whiteSpace=wrap;html=1;" vertex="1" parent="1">
          <mxGeometry x="50" y="260" width="60" height="30" as="geometry" />
        </mxCell>
        <mxCell id="FAIi7eiu8izLVMuamcSI-12" style="edgeStyle=orthogonalEdgeStyle;rounded=0;orthogonalLoop=1;jettySize=auto;html=1;endArrow=none;endFill=0;" edge="1" parent="1" source="FAIi7eiu8izLVMuamcSI-10" target="FAIi7eiu8izLVMuamcSI-11">
          <mxGeometry relative="1" as="geometry" />
        </mxCell>
        <mxCell id="FAIi7eiu8izLVMuamcSI-10" value="Doctor" style="rounded=0;whiteSpace=wrap;html=1;" vertex="1" parent="1">
          <mxGeometry x="570" y="180" width="120" height="60" as="geometry" />
        </mxCell>
        <mxCell id="FAIi7eiu8izLVMuamcSI-11" value="&lt;u&gt;SSN&lt;/u&gt;" style="ellipse;whiteSpace=wrap;html=1;" vertex="1" parent="1">
          <mxGeometry x="600" y="80" width="60" height="30" as="geometry" />
        </mxCell>
        <mxCell id="FAIi7eiu8izLVMuamcSI-14" style="rounded=0;orthogonalLoop=1;jettySize=auto;html=1;entryX=1;entryY=0.25;entryDx=0;entryDy=0;endArrow=none;endFill=0;" edge="1" parent="1" source="FAIi7eiu8izLVMuamcSI-13" target="FAIi7eiu8izLVMuamcSI-10">
          <mxGeometry relative="1" as="geometry" />
        </mxCell>
        <mxCell id="FAIi7eiu8izLVMuamcSI-13" value="name" style="ellipse;whiteSpace=wrap;html=1;" vertex="1" parent="1">
          <mxGeometry x="750" y="130" width="60" height="30" as="geometry" />
        </mxCell>
      </root>
    </mxGraphModel>
  </diagram>
</mxfile>
